# xmcd
#
# Track frame offsets: 
#        150
#        21470
#        30612
#        40560
#        50107
#        62670
#        72005
#        84315
#        94632
#        108350
#        117445
#        127090
#        140667
#        149455
#        160245
#        172502
#        181247
#        193097
#
# Disc length: 2726 seconds
#
# Revision: 0
# Processed by: cddbd v1.5.1PL0 Copyright (c) Steve Scherf et al.
# Submitted via: ExactAudioCopy v0.95a5
#
DISCID=f80aa412
DTITLE=The Isley Brothers - Shout
DYEAR=1900
DGENRE=Soul
TTITLE0=Shout (Parts 1 and 2)
TTITLE1=Without a Song
TTITLE2=Respectable
TTITLE3=Open Up Your Heart
TTITLE4=That Lucky Old Sun
TTITLE5=Yes Indeed
TTITLE6=Turn to Me
TTITLE7=Rock Around the Clock
TTITLE8=St. Louis Blues
TTITLE9=He's Got the Whole World in His Hands
TTITLE10=Say You Love Me Too
TTITLE11=Ring-A-Ling-A-Ling
TTITLE12=I'm Gonna Knock on Your Door
TTITLE13=Not One Minute More
TTITLE14=Tell Me Who
TTITLE15=How Deep Is the Ocean
TTITLE16=Gypsy Love Song
TTITLE17=When the Saints Go Marching In
EXTD=
EXTT0=
EXTT1=
EXTT2=
EXTT3=
EXTT4=
EXTT5=
EXTT6=
EXTT7=
EXTT8=
EXTT9=
EXTT10=
EXTT11=
EXTT12=
EXTT13=
EXTT14=
EXTT15=
EXTT16=
EXTT17=
PLAYORDER=
